<?xml version="1.0" encoding="UTF-8" standalone="yes"?>
<svg version="1.2" width="936.000000pt" height="936.000000pt" viewBox="0 0 936.000000 936.000000" preserveAspectRatio="xMidYMid meet" baseProfile="tiny-ps" xmlns="http://www.w3.org/2000/svg">
  <title>bimi-svg-tiny-12-ps</title>
  <rect x="-12.417" y="-5.941" width="995.226" height="969.591" stroke="rgb(0, 0, 0)" fill="rgb(255, 255, 0)"/>
  <g transform="matrix(0.1, 0, 0, -0.1, 23.223473, 970.025696)" fill="#000000" stroke="none">
    <path d="M4125 8465 c-33 -7 -85 -24 -115 -37 -30 -14 -84 -27 -120 -31 -36 -3 -81 -9 -100 -12 l-35 -6 30 17 c17 10 53 24 80 31 l50 13 -50 -6 c-31 -3 -88 -23 -150 -54 -55 -27 -154 -68 -220 -91 -144 -50 -236 -91 -329 -147 -37 -23 -75 -42 -83 -42 -29 0 -193 -60 -270 -99 -235 -118 -427 -305 -539 -523 -71 -140 -96 -233 -97 -368 -1 -107 22 -208 58 -256 8 -10 15 -33 15 -51 0 -26 -10 -42 -57 -85 -71 -67 -128 -153 -154 -237 -22 -68 -32 -184 -45 -550 -7 -166 5 -329 26 -356 4 -5 11 -44 14 -85 8 -84 40 -240 62 -302 7 -22 16 -90 19 -152 11 -240 31 -417 54 -478 6 -16 9 -28 8 -28 -1 -1 -31 -2 -67 -3 -50 -2 -73 -7 -98 -25 -68 -49 -106 -175 -105 -352 1 -194 53 -382 165 -590 28 -52 70 -131 92 -175 141 -276 451 -358 659 -175 l44 39 32 -117 c42 -151 148 -419 218 -552 84 -161 211 -345 308 -448 85 -90 211 -192 330 -267 33 -21 61 -38 62 -39 0 -1 9 -54 19 -118 l17 -117 -64 -73 c-120 -135 -167 -220 -218 -395 -15 -48 -27 -73 -37 -73 -8 0 -19 -12 -25 -27 -25 -67 -252 -257 -482 -406 -478 -309 -572 -376 -737 -535 l-85 -81 39 -1 c35 0 49 9 140 88 133 116 259 206 561 402 307 200 379 255 481 364 l80 85 11 -62 c7 -34 21 -109 31 -167 36 -188 63 -394 77 -575 10 -131 11 -135 51 -135 31 0 33 2 29 28 -3 15 -17 119 -30 232 -33 268 -38 298 -85 540 l-41 206 89 184 c102 211 218 395 227 357 3 -12 16 -76 30 -142 24 -113 61 -250 72 -269 3 -4 9 -2 14 5 7 11 10 9 15 -8 11 -42 232 -531 299 -664 94 -187 207 -346 304 -427 43 -36 56 -42 96 -42 l46 0 -73 58 c-40 32 -95 82 -121 112 -107 119 -229 340 -353 638 -71 172 -138 304 -182 360 -26 34 -30 48 -41 177 -7 77 -21 199 -32 270 -10 72 -19 135 -19 141 0 7 59 -11 138 -41 189 -74 409 -142 522 -162 135 -24 446 -24 595 1 110 18 245 56 298 82 32 17 31 33 11 -171 -26 -265 -28 -481 -6 -645 10 -80 17 -165 15 -190 -3 -25 2 -74 10 -110 40 -170 26 -349 -38 -503 -5 -13 -2 -17 14 -17 16 0 24 12 40 64 47 152 57 349 26 501 -9 44 -17 121 -18 170 -2 50 -7 183 -12 298 -4 114 -5 207 0 207 4 0 58 -42 119 -94 133 -112 214 -200 419 -460 206 -259 374 -380 557 -401 l55 -6 -71 25 c-81 28 -158 71 -224 124 -59 48 -164 151 -159 156 2 2 47 -5 99 -16 205 -43 461 -176 650 -337 76 -65 173 -164 197 -203 14 -23 25 -28 56 -28 l38 0 -22 33 c-45 64 -186 200 -283 274 -66 50 -149 99 -250 148 -191 94 -280 127 -419 160 -62 14 -117 29 -122 33 -6 4 -77 86 -157 183 -184 221 -344 384 -426 434 -55 34 -62 41 -58 64 3 14 7 76 11 136 11 211 5 195 98 254 256 161 372 279 609 618 109 156 173 284 194 388 8 44 26 127 39 185 21 90 49 287 57 399 3 34 3 35 57 38 141 8 232 119 266 323 8 52 23 131 32 175 9 44 16 109 16 145 -1 36 7 108 17 160 31 159 42 322 30 450 -17 182 -64 260 -156 260 -25 0 -53 -4 -63 -9 -16 -9 -17 16 -16 427 0 240 -3 586 -7 769 -7 314 -9 336 -33 410 -13 43 -44 108 -69 145 l-44 68 -4 167 c-4 150 -7 176 -30 238 -14 39 -44 123 -67 189 -55 158 -169 379 -242 471 -103 130 -312 283 -423 309 -16 4 -48 20 -70 35 -23 16 -63 38 -89 49 -27 12 -62 33 -79 47 -44 37 -92 60 -210 98 -117 39 -229 60 -285 55 -27 -2 -56 6 -103 30 -98 48 -233 75 -349 69 -71 -4 -102 -2 -122 9 -78 40 -243 54 -354 29z m730 -1274 c99 -11 227 -23 285 -27 79 -5 112 -11 132 -26 15 -10 57 -33 94 -49 119 -54 390 -245 481 -338 80 -82 153 -214 197 -356 47 -149 152 -450 171 -485 10 -19 41 -69 68 -110 28 -41 75 -111 104 -154 32 -48 53 -90 53 -107 0 -15 15 -79 34 -141 27 -92 35 -137 40 -242 4 -71 13 -176 21 -235 26 -192 50 -445 49 -511 -1 -36 -6 -108 -12 -160 -6 -52 -18 -162 -27 -245 -9 -82 -21 -158 -26 -168 -13 -25 17 -34 50 -16 43 24 58 92 76 345 29 423 45 623 51 637 3 8 19 18 36 21 107 21 155 -37 173 -209 11 -112 -24 -563 -62 -780 -49 -286 -87 -381 -171 -424 -44 -22 -134 -31 -139 -14 -3 7 1 63 7 125 21 214 24 284 10 271 -9 -8 -21 -98 -36 -255 -27 -285 -57 -499 -84 -600 -11 -40 -20 -84 -20 -97 0 -43 -50 -192 -91 -275 -68 -137 -247 -380 -420 -572 -122 -135 -237 -222 -391 -294 -153 -72 -381 -110 -651 -110 -282 0 -528 48 -653 127 -32 21 -66 39 -75 41 -30 4 -262 102 -318 133 -205 115 -411 302 -528 481 -126 190 -244 445 -318 685 -74 238 -104 323 -116 323 -6 0 -7 -20 -3 -48 5 -43 3 -52 -22 -82 -16 -18 -58 -47 -94 -64 -60 -28 -74 -31 -171 -31 -100 0 -108 2 -172 34 -83 42 -149 111 -187 195 -16 34 -36 69 -45 76 -34 29 -142 312 -175 460 -40 181 -36 390 10 480 69 136 245 92 449 -112 89 -90 123 -184 155 -428 8 -63 24 -140 35 -170 28 -74 75 -147 95 -147 8 0 34 -6 56 -13 22 -7 42 -11 45 -8 2 2 -9 44 -26 94 -46 136 -85 293 -113 464 -28 169 -47 340 -39 353 7 12 -15 271 -38 440 -21 153 -20 203 8 292 25 78 57 135 117 205 70 81 107 143 111 184 2 17 8 50 14 73 6 23 10 59 9 80 -1 25 11 66 35 120 39 84 44 109 27 115 -7 2 -6 15 4 38 16 40 22 97 12 122 -4 9 1 33 13 57 23 44 27 77 10 83 -7 2 -7 12 0 31 6 16 11 41 11 56 0 19 20 55 62 110 57 74 64 80 69 59 7 -22 7 -21 8 5 1 15 7 36 14 47 10 17 9 22 -3 30 -8 5 -18 6 -23 3 -4 -3 -17 3 -27 12 -11 10 -25 15 -32 12 -12 -4 -16 46 -10 116 3 27 204 225 238 233 16 4 45 15 65 25 39 19 178 57 237 64 21 3 59 9 87 15 27 6 87 11 132 13 69 2 85 5 102 24 26 28 114 46 341 73 41 5 97 16 124 24 28 9 59 13 70 9 12 -4 26 -6 31 -4 34 9 136 19 170 15 22 -2 121 -13 220 -23z m1732 -3178 c-3 -10 -5 -2 -5 17 0 19 2 27 5 18 2 -10 2 -26 0 -35z m-10 -65 c-3 -8 -6 -5 -6 6 -1 11 2 17 5 13 3 -3 4 -12 1 -19z"/>
    <path d="M5760 5484 c-19 -7 -47 -13 -62 -13 -15 -1 -30 -5 -33 -11 -3 -5 -16 -15 -28 -21 -21 -11 -20 -10 3 16 26 29 26 30 -29 7 -10 -4 -12 -1 -6 7 4 8 -2 7 -17 -3 -14 -9 -32 -14 -41 -11 -8 4 -18 1 -22 -5 -6 -9 -9 -9 -15 0 -6 9 -18 5 -45 -16 -21 -15 -45 -29 -54 -30 -24 -4 -101 -92 -101 -117 0 -23 1 -22 84 53 l40 35 -31 -40 c-42 -57 -51 -74 -25 -51 12 11 22 15 22 11 0 -5 14 4 31 21 26 24 30 25 20 7 -6 -12 -16 -25 -21 -28 -15 -10 -12 -25 6 -25 10 0 13 -6 10 -18 -4 -13 -1 -18 13 -18 11 0 17 4 15 8 -3 4 1 8 9 8 8 0 27 11 43 25 16 14 45 35 64 46 33 19 32 17 -10 -20 -36 -33 -42 -42 -30 -50 10 -7 29 -2 66 19 48 26 58 28 143 25 51 -2 95 -6 98 -9 4 -3 -6 -6 -21 -6 -15 0 -25 -4 -21 -10 3 -5 11 -7 18 -5 7 2 28 0 47 -4 l35 -9 -30 -2 c-16 -2 -45 -2 -62 -1 -18 2 -33 -2 -33 -7 0 -5 12 -7 28 -5 21 4 24 2 12 -6 -10 -7 -11 -11 -2 -11 6 0 12 -6 12 -12 0 -10 38 -11 177 -5 98 4 188 12 201 17 16 7 34 5 65 -7 54 -21 71 -36 26 -23 -39 11 -178 12 -259 0 -51 -7 -52 -7 -15 -9 27 -1 36 -4 26 -10 -26 -16 20 -29 149 -40 69 -6 136 -14 149 -18 21 -5 23 -3 19 15 -7 26 6 28 42 7 14 -8 28 -14 32 -15 12 0 1 85 -15 115 -27 53 -151 155 -186 155 -11 0 -10 -4 5 -15 18 -14 18 -14 -11 -14 -40 1 -126 16 -97 18 36 2 25 19 -20 31 -24 6 -48 13 -54 15 -7 2 -38 0 -70 -5 -33 -4 -61 -6 -62 -5 -2 2 30 14 72 28 113 35 69 52 -59 23 -97 -23 -144 -44 -229 -105 -78 -56 -135 -91 -88 -54 13 10 58 45 100 78 42 34 88 69 102 79 l25 18 -25 -7 c-14 -4 -41 -17 -60 -28 -87 -51 -87 -52 -55 -21 17 16 41 36 55 45 33 22 23 28 -20 13z m295 -79 c-29 -11 -136 -32 -128 -25 9 9 87 28 118 28 11 0 16 -1 10 -3z m-445 -29 c0 -2 -7 -7 -16 -10 -8 -3 -12 -2 -9 4 6 10 25 14 25 6z m550 -35 c0 -5 -9 -7 -20 -4 -11 3 -20 7 -20 9 0 2 9 4 20 4 11 0 20 -4 20 -9z m193 -52 c57 -61 67 -80 29 -60 -11 6 -23 22 -26 36 -4 16 -25 37 -53 55 -31 20 -40 30 -28 30 11 0 46 -28 78 -61z m-433 31 c-36 -11 -52 -11 -45 0 3 6 21 10 38 9 31 -1 31 -1 7 -9z m193 3 c-7 -2 -21 -2 -30 0 -10 3 -4 5 12 5 17 0 24 -2 18 -5z m22 -38 l40 -14 -50 3 c-81 6 -82 7 -60 16 27 12 25 12 70 -5z m195 -20 c13 -14 21 -25 18 -25 -2 0 -15 11 -28 25 -13 14 -21 25 -18 25 2 0 15 -11 28 -25z m-303 -21 c-3 -3 -12 -4 -19 -1 -8 3 -5 6 6 6 11 1 17 -2 13 -5z m138 -4 c4 -6 -11 -10 -39 -10 -24 0 -52 -3 -62 -7 -16 -6 -17 -5 -4 10 17 18 95 24 105 7z m252 -67 c-7 -7 -57 8 -57 18 0 4 14 3 31 -3 16 -6 28 -12 26 -15z m-73 -10 c18 -10 -209 -4 -237 6 -11 4 35 6 101 5 67 -2 128 -6 136 -11z"/>
    <path d="M3802 5377 c9 -7 41 -30 71 -52 31 -22 54 -41 52 -43 -2 -2 -33 15 -69 38 -88 56 -116 49 -37 -9 59 -42 105 -86 71 -66 -8 4 -34 22 -57 38 -67 48 -137 68 -243 73 -64 2 -85 1 -65 -5 17 -5 57 -18 90 -30 l60 -21 -75 5 c-76 4 -64 -6 24 -20 21 -4 36 -9 33 -11 -3 -3 -31 -1 -63 5 -71 13 -134 14 -154 1 -13 -8 -13 -10 0 -14 8 -3 29 -7 45 -9 17 -2 5 -5 -26 -6 -61 -1 -133 -32 -181 -79 -44 -41 -34 -59 11 -19 22 19 50 40 63 46 22 11 22 11 -2 -6 -14 -10 -41 -32 -60 -48 -36 -32 -89 -59 -97 -51 -3 3 31 41 76 86 44 45 81 84 81 87 0 8 -47 -24 -98 -66 -56 -46 -91 -106 -96 -164 -3 -26 -3 -47 -1 -47 2 0 19 9 37 19 53 32 136 48 243 49 66 0 91 -2 75 -8 -14 -4 -67 -8 -118 -9 -93 -1 -162 -19 -162 -42 0 -8 12 -9 38 -4 20 4 88 13 151 20 90 11 117 18 132 34 10 11 19 22 19 25 0 3 -33 7 -72 9 -40 1 2 4 93 5 143 2 169 4 180 19 12 15 12 16 -3 10 -11 -4 -17 -2 -15 5 1 7 -16 15 -40 18 -42 6 -74 22 -37 19 10 -1 46 -1 79 1 l60 3 -45 6 -45 7 55 7 c131 15 157 16 185 1 35 -18 46 -18 21 1 -30 22 -11 18 26 -6 18 -12 25 -18 15 -15 -10 3 -16 2 -13 -3 3 -5 18 -8 33 -8 l27 0 -35 31 c-18 17 -50 44 -69 60 -45 36 -26 26 84 -46 100 -66 136 -76 90 -26 -16 18 -21 26 -11 18 10 -7 30 -15 44 -16 l25 -3 -23 25 c-12 13 -18 24 -12 24 6 0 16 -7 23 -15 7 -8 16 -13 20 -10 5 3 11 1 15 -5 3 -5 11 -10 17 -10 5 0 -4 16 -21 35 -40 46 -40 57 2 19 17 -16 42 -35 55 -42 19 -10 22 -10 22 3 0 23 -79 104 -109 112 -14 3 -38 16 -53 29 -21 17 -37 22 -68 19 -22 -2 -43 1 -46 7 -4 7 -9 6 -14 -3 -7 -10 -14 -9 -35 5 -35 23 -43 14 -13 -15 l23 -22 -36 21 c-20 12 -38 20 -40 17 -3 -2 -29 2 -59 10 -66 18 -70 18 -48 2z m219 -114 c13 -16 12 -17 -3 -4 -17 13 -22 21 -14 21 2 0 10 -8 17 -17z m-611 -37 c0 -2 -7 -7 -16 -10 -8 -3 -12 -2 -9 4 6 10 25 14 25 6z m73 -3 c-7 -2 -19 -2 -25 0 -7 3 -2 5 12 5 14 0 19 -2 13 -5z m30 -20 c-7 -2 -19 -2 -25 0 -7 3 -2 5 12 5 14 0 19 -2 13 -5z m234 1 c-3 -3 -12 -4 -19 -1 -8 3 -5 6 6 6 11 1 17 -2 13 -5z m-197 -34 c13 -9 13 -10 0 -10 -8 -1 -35 -3 -59 -5 -42 -3 -43 -3 -20 10 29 16 59 18 79 5z m47 -36 c-3 -3 -12 -4 -19 -1 -8 3 -5 6 6 6 11 1 17 -2 13 -5z m-52 -14 c4 -6 -17 -10 -57 -9 -44 0 -57 3 -43 9 28 12 93 12 100 0z m102 4 c-3 -3 -12 -4 -19 -1 -8 3 -5 6 6 6 11 1 17 -2 13 -5z m-227 -35 c0 -5 -15 -9 -34 -9 -18 0 -49 -2 -67 -5 l-34 -5 37 18 c37 18 98 19 98 1z m-174 -28 c-3 -5 -18 -11 -33 -14 -26 -5 -26 -4 -8 9 21 15 49 19 41 5z"/>
    <path d="M5580 5030 c-25 -4 -58 -13 -73 -19 -48 -19 -143 -88 -182 -133 -36 -42 -95 -138 -95 -154 0 -4 47 41 105 100 84 85 118 113 172 139 65 30 74 32 188 32 99 0 134 -4 198 -24 88 -27 114 -46 34 -24 -69 19 -257 21 -327 4 -82 -20 -188 -78 -248 -135 -70 -67 -137 -196 -102 -196 6 0 14 10 19 23 10 26 182 207 197 207 5 0 9 -24 10 -53 0 -52 19 -100 49 -131 24 -23 157 -22 210 3 63 29 79 53 83 127 4 56 1 70 -17 95 l-22 29 38 0 c89 0 240 -50 321 -107 12 -9 22 -11 22 -5 0 6 -4 14 -10 17 -5 3 -10 11 -10 16 0 6 5 7 10 4 6 -3 10 -4 10 -1 0 10 -142 98 -205 127 -113 51 -279 77 -375 59z m10 -225 c26 -32 -13 -81 -47 -59 -24 15 -27 38 -8 58 20 20 39 20 55 1z"/>
    <path d="M3855 4923 c-64 -13 -179 -61 -236 -98 -79 -51 -204 -166 -190 -174 6 -4 6 -12 1 -21 -17 -26 -11 -35 9 -14 72 73 146 116 265 153 37 11 70 21 72 21 3 0 -2 -13 -11 -30 -21 -40 -19 -96 6 -146 17 -36 28 -45 71 -60 57 -19 146 -16 193 7 46 22 67 72 62 147 -3 34 -1 62 3 62 17 0 164 -103 206 -146 25 -25 49 -43 52 -39 12 11 -31 75 -85 126 -137 130 -374 174 -568 107 -38 -14 -79 -28 -90 -32 -11 -3 16 12 60 34 107 53 191 74 280 68 97 -7 178 -43 296 -133 54 -41 99 -70 99 -64 0 23 -133 148 -189 178 -95 51 -220 73 -306 54z m44 -222 c14 -26 -8 -54 -39 -49 -25 3 -36 27 -26 54 8 20 53 17 65 -5z"/>
    <path d="M2169 4252 c5 -10 55 -60 110 -111 56 -51 121 -116 145 -145 l45 -52 -14 -40 c-35 -97 -9 -219 59 -282 40 -37 90 -62 101 -50 2 2 -17 19 -43 38 -29 22 -57 55 -75 90 -26 50 -29 61 -23 125 3 39 8 88 12 110 4 22 3 37 -1 33 -5 -5 -23 13 -40 40 -41 59 -107 126 -201 203 -77 62 -91 70 -75 41z"/>
    <path d="M2050 4145 c-15 -45 -14 -153 1 -205 7 -23 30 -60 51 -83 l38 -42 -20 37 c-34 60 -41 97 -41 216 1 114 -9 139 -29 77z"/>
    <path d="M6815 4084 c-4 -55 -13 -134 -20 -175 -7 -41 -11 -76 -9 -78 2 -2 14 18 26 45 16 37 22 74 26 154 5 147 -13 191 -23 54z"/>
    <path d="M6704 4128 c44 -39 60 -90 41 -134 -7 -16 -35 -51 -64 -77 -28 -26 -51 -50 -51 -53 0 -9 53 6 77 22 42 27 77 121 66 177 -6 32 -67 97 -91 97 -9 0 0 -13 22 -32z"/>
    <path d="M2306 3911 c-18 -80 -20 -160 -6 -211 24 -87 103 -170 175 -185 27 -5 27 -4 -10 16 -88 47 -141 121 -152 210 -3 27 0 90 7 140 6 50 10 93 7 95 -3 3 -12 -26 -21 -65z"/>
    <path d="M4486 3698 c-36 -62 -46 -93 -46 -144 0 -54 16 -87 67 -136 59 -57 114 -78 208 -78 44 0 87 5 95 10 10 7 -9 10 -62 10 -100 0 -174 27 -222 80 -20 22 -38 52 -42 67 -3 16 -7 33 -9 39 -5 18 14 107 31 147 24 53 11 57 -20 5z"/>
    <path d="M5465 3696 c55 -108 17 -213 -100 -275 -22 -11 -54 -24 -72 -27 -46 -9 -51 -24 -8 -24 55 0 101 24 164 87 95 95 102 164 26 249 l-35 39 25 -49z"/>
    <path d="M5284 3521 c-17 -10 -55 -47 -85 -81 -30 -34 -72 -71 -94 -82 -22 -12 -34 -23 -27 -26 28 -9 63 10 114 63 29 31 62 55 73 55 36 0 85 37 85 65 0 31 -22 33 -66 6z"/>
    <path d="M4695 3447 c-17 -8 -36 -21 -44 -30 -12 -15 -9 -17 33 -17 25 0 67 6 92 12 45 13 48 12 127 -30 85 -45 111 -48 62 -6 -83 69 -204 101 -270 71z"/>
    <path d="M5190 2954 l-95 -47 -90 22 c-167 40 -210 28 -346 -95 -112 -102 -148 -124 -203 -124 -25 0 -48 5 -51 10 -11 17 -33 11 -40 -11 -8 -26 0 -35 18 -21 10 8 24 8 53 1 21 -6 60 -9 87 -6 44 6 53 3 106 -33 88 -60 153 -73 361 -72 187 1 273 15 373 62 51 24 137 95 137 113 0 7 11 24 24 38 17 20 35 27 72 31 57 6 144 43 144 62 0 22 -13 27 -29 12 -9 -8 -42 -22 -73 -31 -67 -19 -84 -13 -164 58 -104 93 -146 98 -284 31z m192 -3 c13 -5 43 -27 68 -50 37 -34 40 -41 20 -34 -56 17 -147 5 -235 -32 -92 -38 -108 -42 -83 -22 18 13 41 85 32 99 -3 4 -4 8 -2 8 2 0 28 9 58 20 60 21 106 25 142 11z m113 -129 l30 -8 -46 -47 c-163 -162 -598 -228 -810 -121 -51 25 -74 48 -64 64 3 6 30 23 58 38 48 25 61 27 167 26 63 0 167 -2 231 -5 l116 -4 69 37 c66 36 72 37 144 33 41 -3 89 -9 105 -13z"/>
    <path d="M5027 2983 c-26 -2 -45 -8 -42 -14 9 -13 52 -11 110 5 46 13 47 14 15 13 -19 0 -56 -2 -83 -4z"/>
    <path d="M5138 2493 c7 -3 16 -2 19 1 4 3 -2 6 -13 5 -11 0 -14 -3 -6 -6z"/>
    <path d="M6542 259 c-19 -6 -95 -20 -170 -33 -74 -12 -130 -26 -124 -30 28 -17 150 -18 233 -2 71 15 169 56 169 71 0 8 -73 4 -108 -6z"/>
    <path d="M6187 138 c-3 -57 -8 -111 -12 -120 -6 -14 -2 -18 18 -18 20 0 25 6 31 37 3 21 6 52 6 70 0 43 -20 133 -29 133 -5 0 -11 -46 -14 -102z"/>
    <path d="M4215 20 c-27 -18 -28 -20 -9 -20 12 0 27 7 34 15 20 24 7 26 -25 5z"/>
  </g>
</svg>